<?xml version="1.0" encoding="utf-8"?>
<!-- Generator: Adobe Illustrator 26.4.1, SVG Export Plug-In . SVG Version: 6.00 Build 0)  -->
<svg version="1.1" id="Layer_1" xmlns="http://www.w3.org/2000/svg" xmlns:xlink="http://www.w3.org/1999/xlink" x="0px" y="0px"
	 viewBox="0 0 600 600" style="enable-background:new 0 0 600 600;" xml:space="preserve">
<style type="text/css">
	.st0{fill-rule:evenodd;clip-rule:evenodd;fill:url(#SVGID_1_);}
	.st1{fill:#B0AAAC;}
	.st2{fill:none;stroke:#5BAADE;stroke-width:4;stroke-miterlimit:10;}
	.st3{fill:#57BADE;stroke:#1EA9E1;stroke-width:4;stroke-miterlimit:10;}
	.st4{fill:#B0DDCB;}
	.st5{fill:none;stroke:#545DAA;stroke-width:4;stroke-miterlimit:10;}
	.st6{fill:none;stroke:#B7B3D9;stroke-width:4;stroke-miterlimit:10;}
	.st7{fill:none;stroke:#FFDE17;stroke-width:4;stroke-miterlimit:10;}
	.st8{fill:none;stroke:#ED1C24;stroke-width:4;stroke-miterlimit:10;}
	.st9{fill:none;stroke:#75C487;stroke-width:4;stroke-miterlimit:10;}
	.st10{fill:#EF413E;}
	.st11{fill:#FFDE17;}
	.st12{fill:#4C5EAB;}
	.st13{fill:#6EC390;}
	.st14{fill:#57BADE;}
	.st15{fill:#729AD1;}
	.st16{fill:#FFFFFF;}
	.st17{stroke:#FFFFFF;stroke-miterlimit:10;}
	.st18{fill:#4DBA70;}
	.st19{fill:#F6A71C;}
	.st20{font-family:'MyriadPro-Regular';}
	.st21{font-size:65.8726px;}
	.st22{fill:#FFFFFF;stroke:#FFFFFF;stroke-width:3;stroke-miterlimit:10;}
	.st23{font-size:36.9762px;}
	.st24{fill:#F4D33B;}
	.st25{fill:none;stroke:#FFDE17;stroke-width:5;stroke-miterlimit:10;}
	.st26{font-family:'Mistral';}
	.st27{font-size:24px;}
	.st28{fill:#ED1C24;}
	.st29{font-size:18px;}
	.st30{fill-rule:evenodd;clip-rule:evenodd;fill:#010101;}
</style>
<linearGradient id="SVGID_1_" gradientUnits="userSpaceOnUse" x1="600" y1="600" x2="-9.094947e-13" y2="7.958079e-13">
	<stop  offset="0" style="stop-color:#2484C6"/>
	<stop  offset="1" style="stop-color:#2484C6;stop-opacity:0"/>
</linearGradient>
<rect class="st0" width="600" height="600"/>
<path class="st1" d="M724.55,181.75"/>
<g>
	<polyline class="st2" points="288.32,80.32 453.75,83.32 530.13,230.66 	"/>
	<line class="st3" x1="82.34" y1="227.45" x2="115.04" y2="174.51"/>
	<path class="st4" d="M198.06,390.32c0,0-43.47-70-41.66-78.91s-18.72-51.03,0-38.27s57.96,75.86,60.08,78.27s3.32-56.45,3.32-56.45
		l-31.7-101.43c0,0-18.42-77.28,13.58-32s69.74,68.53,69.74,68.53s25.36-96.67,35.62-108.41c10.26-11.74,21.43,23.88,22.94,27.2
		s21.43,158.38,21.43,158.38s-152.68,82.75-150.94,83.1"/>
	<path class="st4" d="M201.68,377.98c0,0-37.62-1.1-69.23,3.22c-31.6,4.33-84.23,102.74,2.21,156.78c0,0,206.49,0.91,259.62,0
		s192.6-116.53,134.04-250.57s-180.46-15.09-151.21,31.09L201.68,377.98z"/>
	<line class="st5" x1="179.34" y1="416.62" x2="208.62" y2="422.96"/>
	<polyline class="st5" points="439.87,342.59 522.31,379.19 546.13,287.42 	"/>
	<line class="st6" x1="429.91" y1="435.64" x2="499.04" y2="385.33"/>
	<polyline class="st6" points="179.34,365.91 428.27,147.04 414.51,262.09 	"/>
	<polyline class="st6" points="75.19,255.44 142.81,377.08 173.37,285.6 	"/>
	<line class="st7" x1="158.48" y1="192.02" x2="165.45" y2="248.47"/>
	<polyline class="st8" points="493.6,258.43 419.34,311.41 403.64,396.49 	"/>
	<polyline class="st9" points="192.83,104.47 221.6,91.19 261.45,117.75 171.79,263.68 97.23,248.47 	"/>
	<circle class="st10" cx="192.62" cy="263.68" r="36.23"/>
	<circle class="st11" cx="399.6" cy="427.15" r="36.83"/>
	<circle class="st12" cx="137.58" cy="386.74" r="55.25"/>
	<circle class="st13" cx="146.32" cy="134.36" r="60.98"/>
	<circle class="st14" cx="428.27" cy="121.65" r="82.91"/>
	<g>
		<circle class="st15" cx="417.51" cy="307.18" r="54.79"/>
		<path class="st16" d="M450.71,272.14c-11.76-0.1-23.52-0.19-35.28-0.29c-1.42,0.42-3.7,1.27-6.01,3.11
			c-2.12,1.68-3.42,3.51-4.16,4.74c-1.19,5.2-2.37,10.4-3.56,15.6h-13.6l-1.72,8.45h13.97l-1.29,3.95l-13.41-0.03l-1.59,8.09h13.36
			l-5.88,26.83h23.16l5.88-27.07l13.97-0.11l1.71-8.24l-13.44,0.2l0.58-2.88l12.99-0.37l2.21-8.33H425.6l3.68-14.09l19.73-0.25
			L450.71,272.14z"/>
	</g>
	<path class="st16" d="M271.42,193.53"/>
	<g>
		<path class="st17" d="M203.19,201.38c0,0,6.34-23.55,22.64-23.55s125.28,0,125.28,0s23.85,4.83,23.85,25.66s0,299.77,0,299.77
			s-4.23,27.17-19.02,27.17s-129.51,0-129.51,0s-24.75-1.21-24.75-22.34C201.68,486.96,203.19,201.38,203.19,201.38z"/>
		<path class="st16" d="M320.32,190.58c0.26-2.95,0.15-2.64,4.83-2.79c3.92-0.13,25.06,0,25.06,0s17.51,2.68,17.51,16.13
			c0,13.45-1.51,295.41-1.51,295.41s-0.3,19.62-14.79,19.62s-121.96,0-121.96,0s-18.42-0.91-18.42-18.42
			c0-17.51,0.3-296.75,0.3-296.75s4.53-16,13.58-16c9.06,0,32.91,0,32.91,0s5.97-0.9,6.26,3.17"/>
	</g>
	<circle class="st10" cx="266.84" cy="83.32" r="48.33"/>
	<g transform="matrix(1.99997 0 0 1.99997-10.994-2071.68)">
		<path class="st18" d="M263.38,1191.56L263.38,1191.56c11.75,0,21.27,9.52,21.27,21.27l0,0c0,11.75-9.52,21.27-21.27,21.27l0,0
			c-11.75,0-21.27-9.52-21.27-21.27l0,0C242.11,1201.09,251.64,1191.56,263.38,1191.56z"/>
		<path class="st16" d="M277.09,1207.12l-2.57-2.57c-0.35-0.35-0.78-0.53-1.28-0.53c-0.5,0-0.93,0.18-1.28,0.53l-12.39,12.41
			l-5.55-5.57c-0.35-0.35-0.78-0.53-1.28-0.53c-0.5,0-0.93,0.18-1.28,0.53l-2.57,2.57c-0.35,0.35-0.53,0.78-0.53,1.28
			c0,0.5,0.18,0.93,0.53,1.28l6.84,6.84l2.57,2.57c0.35,0.35,0.78,0.53,1.28,0.53c0.5,0,0.93-0.18,1.28-0.53l2.57-2.57l13.67-13.67
			c0.35-0.35,0.53-0.78,0.53-1.28C277.61,1207.9,277.44,1207.47,277.09,1207.12"/>
	</g>
	<circle class="st19" cx="532.36" cy="250.78" r="46.68"/>
	<g>
		<path class="st16" d="M505.73,266.49v-22.1c0-0.58,0.22-1.13,0.65-1.56c0.44-0.44,0.95-0.65,1.56-0.65h9.96
			c0.58,0,1.13,0.22,1.56,0.65s0.65,0.95,0.65,1.56v22.1c0,0.58-0.22,1.13-0.65,1.56s-0.95,0.65-1.56,0.65h-9.96
			c-0.58,0-1.13-0.22-1.56-0.65C505.95,267.62,505.73,267.11,505.73,266.49z M510.17,262.09c0,0.62,0.22,1.16,0.65,1.56
			c0.44,0.44,0.95,0.65,1.56,0.65c0.58,0,1.13-0.22,1.56-0.65c0.44-0.44,0.65-0.95,0.65-1.56c0-0.58-0.22-1.13-0.65-1.56
			c-0.44-0.44-0.95-0.65-1.56-0.65c-0.62,0-1.16,0.22-1.56,0.65C510.39,260.97,510.17,261.48,510.17,262.09z M522.31,266.49v-22.14
			c0-0.58,0.22-1.09,0.62-1.49c0.4-0.44,0.91-0.65,1.49-0.69c0.55-0.04,1.42-0.73,2.62-2.04c1.2-1.31,2.36-2.69,3.49-4.18
			c1.56-2,2.73-3.38,3.49-4.14c0.4-0.4,0.76-0.98,1.05-1.67c0.29-0.69,0.51-1.24,0.62-1.67c0.11-0.44,0.25-1.13,0.47-2.07
			c0.15-0.91,0.29-1.6,0.44-2.11c0.11-0.51,0.36-1.09,0.69-1.78c0.33-0.69,0.73-1.27,1.16-1.71s0.95-0.65,1.56-0.65
			c1.05,0,2,0.11,2.84,0.36c0.84,0.25,1.53,0.55,2.07,0.91c0.55,0.36,1.02,0.84,1.38,1.38c0.36,0.58,0.65,1.09,0.84,1.56
			c0.18,0.47,0.33,1.02,0.4,1.71c0.11,0.69,0.15,1.2,0.18,1.56v1.34c0,0.87-0.11,1.74-0.33,2.62c-0.22,0.87-0.44,1.56-0.65,2.07
			c-0.22,0.51-0.55,1.16-0.95,1.93c-0.07,0.15-0.18,0.33-0.33,0.62s-0.29,0.55-0.36,0.76c-0.11,0.22-0.18,0.51-0.29,0.84h9.56
			c1.78,0,3.34,0.65,4.65,1.96c1.31,1.31,1.96,2.87,1.96,4.65c0,1.96-0.62,3.71-1.89,5.16c0.33,1.02,0.51,1.89,0.51,2.62
			c0.07,1.74-0.44,3.34-1.49,4.73c0.4,1.27,0.4,2.65,0,4.03c-0.33,1.31-0.98,2.4-1.85,3.23c0.22,2.58-0.36,4.65-1.71,6.25
			c-1.49,1.74-3.74,2.65-6.8,2.69h-4.43c-1.53,0-3.16-0.18-4.98-0.55c-1.78-0.36-3.2-0.69-4.18-1.02c-1.02-0.33-2.4-0.76-4.14-1.38
			c-2.84-0.98-4.65-1.49-5.45-1.53c-0.58-0.04-1.13-0.25-1.56-0.69C522.53,267.62,522.31,267.11,522.31,266.49L522.31,266.49z"/>
	</g>
	<path class="st16" d="M429.09,169.89c0,0-25.87-19.18-41.66-37.74c-15.17-17.82-9.36-30.19,0-38.34s29.05-4.75,41.66,9.96
		c1.81,2.11,14.79-23.55,36.23-12.38c21.43,11.17,11.43,33.4,7.98,37.83c-0.24,0.31-0.52,0.66-0.84,1.06c0,0-1.73,2.16-3.77,4.4
		c-9.12,10.03-17.25,17.38-17.25,17.38C445.67,157.29,438.24,163.46,429.09,169.89z"/>
	<text transform="matrix(1.397 0 0 1 242.6411 100.5693)" class="st16 st20 st21">#</text>
	<polygon class="st16" points="104.47,121.65 133.75,117.75 147.04,91.19 159.42,117.75 188.09,121.65 167.87,142.81 173,172.4 
		146.28,157.91 120.77,172.4 126.2,142.1 	"/>
	<path class="st16" d="M162.43,363.19c0,0,8.75,0.91,10.26,10.57c1.51,9.66,0,19.32,0,19.32s0.3,11.77-8.75,11.77
		c-9.06,0-29.28,0-29.28,0s-6.04,8.45,0,16.6c0,0-13.58-2.72-17.21-16.3c0,0-12.98,1.51-12.98-12.83c0-14.34,0-15.85,0-15.85
		s-2.72-13.28,12.08-13.28S162.43,363.19,162.43,363.19z"/>
	<circle class="st12" cx="119.16" cy="385.33" r="4.12"/>
	<circle class="st12" cx="132.45" cy="385.33" r="4.12"/>
	<circle class="st12" cx="145.25" cy="385.33" r="4.12"/>
	<circle class="st12" cx="158.48" cy="385.33" r="4.12"/>
	<circle class="st12" cx="77.68" cy="244.65" r="25.06"/>
	<text transform="matrix(1 0 0 1 66.4341 252.5859)" class="st22 st20 st23">+</text>
	<circle class="st24" cx="386.99" cy="422.39" r="2.93"/>
	<circle class="st24" cx="408.47" cy="422.96" r="2.93"/>
	<path class="st25" d="M386.99,433.83c1.61,4.3,5.55,7.27,10.01,7.55c4.95,0.31,9.65-2.74,11.47-7.55"/>
	<text transform="matrix(1 0 0 1 250.1509 230.415)" class="st26 st27">PAY.COOL</text>
	<polygon class="st28" points="280.46,231.04 281.34,227.45 283.21,227.88 284.14,231.42 	"/>
	<text transform="matrix(1 0 0 1 238.0757 423.1318)" class="st20 st29">SCAN TO JOIN</text>
	<path class="st30" d="M301.62,325.93c0-6.17-5.01-11.18-11.18-11.18s-11.18,5.01-11.18,11.18c0,6.17,5.01,11.18,11.18,11.18
		S301.62,332.11,301.62,325.93z M290.44,344.57c-10.29,0-18.63-8.34-18.63-18.63c0-10.29,8.34-18.63,18.63-18.63
		s18.63,8.34,18.63,18.63C309.07,336.23,300.73,344.57,290.44,344.57z M277.1,294.48l-2.5,2.39c-1.38,1.33-3.22,2.08-5.14,2.09
		h-8.83c-3.85-0.23-7.17,2.67-7.45,6.52v39.28c0.26,3.86,3.59,6.79,7.45,6.56h59.63c3.87,0.23,7.19-2.7,7.45-6.56v-39.28
		c-0.26-3.86-3.59-6.79-7.45-6.56h-8.83c-1.92-0.01-3.76-0.76-5.14-2.09l-2.5-2.39c-1.39-1.32-3.23-2.05-5.14-2.05h-16.4
		C280.32,292.4,278.48,293.15,277.1,294.48z"/>
</g>
</svg>
