<?xml version="1.0" encoding="utf-8"?>
<!-- Generator: Adobe Illustrator 25.2.1, SVG Export Plug-In . SVG Version: 6.00 Build 0)  -->
<svg fill="#1ed5f1" version="1.1" id="图层_1" xmlns="http://www.w3.org/2000/svg" xmlns:xlink="http://www.w3.org/1999/xlink" x="0px" y="0px"
	 viewBox="0 0 500 500" style="enable-background:new 0 0 500 500;" xml:space="preserve">
<path d="M250.46,106.36c77.34-0.5,145.35,63.87,143.31,147.55c-1.84,75.62-64.29,140.33-145.24,139.56
	c-76.66-0.73-143.28-64.03-141.6-146.91C108.49,170.18,171.51,106.13,250.46,106.36z M247.07,332.19c0,3.14,0,6.1,0,9.13
	c3.07,0,5.95,0,9.08,0c0-3.5,0-6.86,0-10.17c2.25-0.49,4.26-0.93,6.45-1.41c0,3.95,0,7.74,0,11.58c3.04,0,5.92,0,9.01,0
	c0-4.61,0.07-9.09-0.04-13.57c-0.03-1.31,0.49-1.98,1.51-2.54c9.91-5.49,17.76-13.09,22.97-23.18c5.17-10.02,6.46-20.43,2.14-31.15
	c-3.88-9.61-10.84-16.68-18.84-22.92c-7.83-6.12-16.7-10.45-25.44-15.02c-7.88-4.13-15.5-8.61-21.32-15.58
	c-9.46-11.32-5.32-28.4,8.26-34c7.6-3.13,15.24-2.56,22.77,0c17.22,5.85,30.88,16.5,41.2,31.42c7.94,11.48,12.54,24.25,13.67,38.13
	c0.89,10.96-0.26,21.77-3.82,32.28c-2.91,8.61-6.99,16.58-12.45,23.81c-6.25,8.27-14.04,14.85-22.98,20.09
	c-0.95,0.56-1.82,1.24-3.06,2.09c30.42-5.17,61.34-31.39,65.17-71.33c1.74-18.17-1.97-35.37-11.98-50.72
	c-13.59-20.85-32.93-33.11-57.88-36.63c0-4.71,0-9.3,0-13.89c-3.08,0-5.92,0-8.98,0c0,4.33,0,8.58,0,13.03
	c-2.25-0.21-4.26-0.4-6.51-0.61c0-4.18,0-8.3,0-12.42c-3.09,0-5.92,0-9.01,0c0,4.2,0,8.31,0,12.51c-0.87,0-1.48,0-2.08,0
	c-13.55,0-27.1-0.01-40.65,0c-8.44,0.01-16.89,0.03-25.33,0.12c-0.67,0.01-1.87,0.61-1.92,1.03c-0.2,1.99-0.09,4.02-0.09,6.19
	c2.56,0,4.8-0.02,7.04,0c7.72,0.1,14.03,6.24,14.13,13.98c0.11,7.9-0.11,15.8,0.02,23.69c0.17,10.35,4.2,19.21,10.85,26.99
	c6.87,8.04,15.88,13.17,24.86,18.35c8.58,4.95,16.98,10.15,23.7,17.6c3.63,4.02,6.52,8.59,7.04,14.06
	c1.03,10.82-3.09,19.34-12.47,24.97c-4.12,2.47-8.78,3.7-13.39,1.57c-8.89-4.11-13.76-11.36-14.86-21.01
	c-0.45-3.92-0.34-7.85-4.89-9.58c-0.48-0.18-0.91-0.57-1.31-0.93c-4.78-4.3-9.64-8.51-14.27-12.97c-1.94-1.87-3.38-4.26-5.18-6.59
	c-0.04,0.45-0.09,0.7-0.09,0.94c0.02,13.55,0.05,27.09,0.05,40.64c0,8.26-5.45,13.73-13.78,13.87c-2.48,0.04-4.96,0.01-7.35,0.01
	c0,2.66,0,4.82,0,7.14C200.36,331.54,223.55,331.86,247.07,332.19z"/>
<path d="M166.17,402.27c1.86,3.32,3.48,6.06,4.95,8.88c0.62,1.19,1.38,1.47,2.62,1.25c3.13-0.55,6.28-1.01,10.1-1.62
	c-2.1,2.3-3.76,4.18-5.49,5.98c-2.68,2.77-2.68,2.73-0.9,6.01c1.25,2.32,2.43,4.68,3.94,7.61c-1.51-0.66-2.51-1.07-3.49-1.52
	c-2.03-0.94-4.09-1.83-6.06-2.9c-1.19-0.64-1.94-0.42-2.81,0.53c-2.09,2.31-4.26,4.55-6.41,6.81c-0.16,0.16-0.45,0.2-0.96,0.42
	c0.44-3.39,0.77-6.53,1.28-9.64c0.27-1.61-0.02-2.56-1.66-3.28c-2.88-1.26-5.63-2.82-8.81-4.45c3.65-0.71,6.82-1.41,10.02-1.89
	c1.53-0.23,1.97-0.87,2.13-2.35C164.94,409.04,165.56,405.99,166.17,402.27z"/>
<path d="M334.72,402.18c0.57,3.96,1.09,7.24,1.5,10.52c0.15,1.19,0.72,1.52,1.82,1.71c3.17,0.54,6.32,1.24,9.56,2.33
	c-2.79,1.43-5.54,2.93-8.38,4.24c-1.22,0.56-1.61,1.25-1.45,2.5c0.44,3.34,0.82,6.7,1.29,10.54c-1.45-1.41-2.63-2.53-3.77-3.69
	c-1.24-1.26-2.53-2.49-3.64-3.85c-0.87-1.08-1.69-1.06-2.82-0.51c-2.96,1.45-5.95,2.81-9.55,4.5c1.85-3.55,3.34-6.61,5.03-9.54
	c0.64-1.1,0.5-1.74-0.3-2.58c-2.28-2.39-4.5-4.85-7.11-7.67c3.43,0.56,6.41,0.93,9.33,1.57c1.91,0.42,2.97-0.05,3.85-1.84
	C331.37,407.77,332.96,405.27,334.72,402.18z"/>
<path d="M240.63,75.84c1.04-3.45,1.93-6.62,2.96-9.75c0.41-1.24,0.17-1.94-0.91-2.7c-2.57-1.81-5.03-3.77-7.54-5.68
	c0.03-0.2,0.07-0.41,0.1-0.61c3.23,0,6.47-0.04,9.7,0.02c1.31,0.02,1.83-0.54,2.2-1.75c0.93-3.02,2.03-5.98,3.24-9.47
	c1.19,3.48,2.27,6.49,3.23,9.54c0.37,1.2,0.89,1.78,2.24,1.74c3.22-0.09,6.45-0.03,9.68-0.03c0.04,0.2,0.08,0.41,0.12,0.61
	c-2.51,1.89-4.97,3.86-7.56,5.63c-1.2,0.82-1.33,1.59-0.92,2.87c0.97,3.01,1.8,6.07,2.81,9.54c-3.02-2.1-5.74-3.91-8.36-5.86
	c-1.01-0.75-1.63-0.72-2.64,0.04C246.35,71.96,243.59,73.78,240.63,75.84z"/>
<path d="M109.59,117.82c0,3.96,0,7.73,0,11.68c3.32,1.34,6.79,2.74,10.71,4.32c-3.98,1.17-7.59,2.23-11.22,3.3
	c-0.29,3.74-0.57,7.38-0.89,11.67c-2.03-2.97-3.82-5.44-5.43-8.02c-0.8-1.28-1.56-1.64-3.06-1.18c-3.01,0.92-6.09,1.61-9.49,2.48
	c2.19-2.88,4.07-5.56,6.18-8.04c0.86-1.02,0.78-1.65,0.14-2.62c-1.73-2.65-3.39-5.35-5.43-8.59c3.49,1.22,6.48,2.13,9.35,3.33
	c1.34,0.56,2.03,0.36,2.88-0.74C105.32,122.85,107.45,120.4,109.59,117.82z"/>
<path d="M66.21,307.83c-0.96-3.91-1.85-7.55-2.77-11.28c-3.74-0.46-7.48-0.92-11.64-1.44c2.98-1.84,5.64-3.58,8.39-5.15
	c1.21-0.69,1.56-1.31,1.2-2.73c-0.78-3.05-1.3-6.18-2-9.68c3.17,2.64,6.01,5.01,8.93,7.45c3.3-1.86,6.57-3.7,10.2-5.75
	c-1.34,3.28-2.5,6.26-3.78,9.19c-0.51,1.16-0.38,1.93,0.59,2.78c2.42,2.12,4.75,4.36,7.43,6.84c-3.56-0.29-6.71-0.54-9.85-0.81
	c-1.23-0.11-1.99,0.05-2.54,1.49C69.24,301.75,67.72,304.62,66.21,307.83z"/>
<path d="M417.94,297.91c2.71-2.45,5.08-4.66,7.52-6.77c1-0.86,1.06-1.61,0.54-2.79c-1.27-2.88-2.36-5.83-3.71-9.2
	c3.09,1.8,5.83,3.32,8.48,4.99c1.24,0.79,2.15,0.6,3.16-0.3c1.93-1.7,3.9-3.35,5.87-5.01c0.35-0.29,0.77-0.51,1.56-1.01
	c-0.73,3.45-1.32,6.51-2.05,9.54c-0.28,1.16-0.15,1.79,1,2.44c2.75,1.55,5.37,3.32,8.57,5.32c-2.54,0.34-4.54,0.62-6.55,0.86
	c-1.34,0.17-2.71,0.19-4.03,0.47c-0.48,0.1-1.07,0.69-1.21,1.17c-0.92,3.28-1.73,6.6-2.65,10.22c-1.51-3.33-2.85-6.42-4.33-9.43
	c-0.27-0.54-1.14-1.14-1.72-1.12C425.03,297.4,421.67,297.67,417.94,297.91z"/>
<path d="M409.43,123.24c-1.79,2.82-3.43,5.45-5.11,8.05c-0.64,0.99-0.9,1.68,0.07,2.8c2.1,2.43,3.93,5.1,6.13,8.02
	c-3.97-1.02-7.53-1.93-11.36-2.92c-2.07,2.96-4.23,6.04-6.69,9.54c-0.29-4.09-0.56-7.82-0.83-11.65c-3.58-1.07-7.18-2.15-11.14-3.33
	c3.83-1.54,7.29-2.93,10.7-4.3c0-3.78,0-7.54,0-11.59c1.98,2.37,3.98,4.59,5.76,6.97c1.1,1.48,2.17,1.91,3.9,1.18
	c2.36-0.99,4.81-1.79,7.23-2.65C408.43,123.24,408.83,123.29,409.43,123.24z"/>
<path d="M250.36,479.84c-61.41,0-119.15-23.92-162.58-67.34c-43.43-43.43-67.34-101.16-67.34-162.58
	c0-61.41,23.92-119.15,67.34-162.58S188.95,20,250.36,20c61.41,0,119.15,23.92,162.58,67.34c43.43,43.43,67.34,101.16,67.34,162.58
	c0,61.41-23.92,119.15-67.34,162.58C369.52,455.93,311.78,479.84,250.36,479.84z M250.36,29.42c-121.58,0-220.5,98.92-220.5,220.5
	s98.92,220.5,220.5,220.5c121.58,0,220.5-98.92,220.5-220.5S371.95,29.42,250.36,29.42z"/>
</svg>
