<?xml version="1.0" encoding="UTF-8"?>
<svg xmlns="http://www.w3.org/2000/svg" version="1.1" viewBox="0 0 1109 1024">
  <defs>
    <style>
      .cls-1 {
        fill: none;
      }

      .cls-1, .cls-2 {
        stroke: #000;
        stroke-miterlimit: 10;
      }

      .cls-3, .cls-2 {
        fill: #fff;
      }

      .cls-4 {
        fill: red;
      }
    </style>
  </defs>
  <!-- Generator: Adobe Illustrator 28.7.0, SVG Export Plug-In . SVG Version: 1.2.0 Build 136)  -->
  <g>
    <g id="Layer_1">
      <path d="M416.7,127.1c-.7,1.9-1.9,3.7-3.7,3.7h-27.1l.6,4.6c.1,1,.8,1.8,1.8,1.8h26.5v1.8h-27.4c-1.5,0-2.5-1.2-2.7-2.7l-3.7-27.4h-7.3v-1.8s5.6,0,7.3,0c1.2,0,1.8,1.8,1.8,1.8l.5,3.7h33.3c2.5,0,3.7,1.1,3.7,3.7l-3.7,11ZM416.7,114.3h-33l2,14.6h26.4c1.6,0,2.2-.5,2.7-1.8l3.7-10c.3-1.9-.5-2.7-1.8-2.7ZM391.5,140.8c2.8,0,5,2.2,5,5s-2.2,5-5,5-5-2.2-5-5,2.2-5,5-5ZM391.5,149c1.8,0,3.2-1.4,3.2-3.2s-1.4-3.2-3.2-3.2-3.2,1.4-3.2,3.2,1.4,3.2,3.2,3.2ZM410.7,140.8c2.8,0,5,2.2,5,5s-2.2,5-5,5-5-2.2-5-5,2.2-5,5-5ZM410.7,149c1.8,0,3.2-1.4,3.2-3.2s-1.4-3.2-3.2-3.2-3.2,1.4-3.2,3.2,1.4,3.2,3.2,3.2Z"/>
      <g>
        <g id="Layer_1-2" data-name="Layer_1">
          <path d="M805.1,217.7h-11.5v-63.9s-.4-.7-1.2-.8c-.6,0-1.1.3-1.4.8v25.9c-1.9-.5-3.7-1.4-4.8-2.4-1.7-1.7-2.5-3.4-2.5-5.6,0-7.3,0-14.6.1-21.9.2-.9.6-2.7,2-4.3,2.7-3.1,6.8-3,7.4-3h27.4c.3,0,4.4-.4,7,2.8,1.7,2.2,1.7,4.7,1.6,5.3v20.7c0,.6,0,3.3-2,5.7-2.1,2.4-4.7,2.8-5.3,2.8v-25.9c0,0-.4-.7-1.1-.8-.6,0-1.2.2-1.5.8v63.9h-11.5v-32c0-.6-.4-.8-1-.9-.7-.1-1.4,0-1.4.8,0,10.7-.2,21.4-.2,32.1h0Z"/>
        </g>
        <circle cx="807.4" cy="128" r="11.4"/>
      </g>
      <g>
        <path class="cls-2" d="M572.4,705.7h-11c-.4,0-1,.3-1.6.9-.9.8-1.2,1.9-1.2,2.2-.2,1.3-.4,2.6-.5,3.9h-3.9l-.7,2.4h4.2s-.4,1.7-.4,1.7c-1.4,0-2.8,0-4.2,0-.2.6-.3,1.3-.5,1.9,1.4,0,2.7,0,4.1,0l-1.5,7.8h6.7l1.1-7.5c1.6,0,3.2,0,4.8,0,.1-.7.3-1.4.4-2.1-1.6,0-3.1,0-4.7,0l.3-1.8h4.7s.5-2.2.5-2.2h-4.8s.8-3.9.8-3.9c2.3,0,4.6,0,6.9-.1.2-1,.3-2,.5-3.1Z"/>
        <path class="cls-3" d="M582.7,709.1c-.5,0-.7,3.8.2,4.1.2,0,.7,0,1-.3.2-.2.2-.4.2-.6-.8-2.8-1.1-3.3-1.3-3.3Z"/>
        <circle class="cls-1" cx="562.6" cy="716.3" r="16.2"/>
      </g>
      <g>
        <path d="M341.4,153.2h0l-11-30.7c-.5-1.3-1.2-2.4-2.1-3.4-1.2-1.2-3-2.5-5.2-2.5h-70.8c-1.9,0-3.4.8-4.5,1.7-1.3,1-2.2,2.5-2.8,4l-11,30.8h0c0,.4,0,.8,0,1.1,0,10.7,8.7,19.4,19.4,19.4s12.8-3.5,16.3-8.8c.4-.6,1.3-.6,1.7,0,3.5,5.3,9.5,8.8,16.3,8.8s12.8-3.5,16.3-8.8c.4-.6,1.3-.6,1.7,0,3.5,5.3,9.5,8.8,16.3,8.8,10.7,0,19.4-8.7,19.4-19.4,0-.4-.1-.8-.1-1.1Z"/>
        <path d="M331,176.5c-2.7,1.1-5.7,1.7-8.9,1.7-6.4,0-12.2-2.5-16.5-6.6-.2-.2-.4-.3-.6-.3s-.5,0-.6.3c-4.3,4.1-10.1,6.6-16.5,6.6s-12.2-2.5-16.5-6.6c-.2-.2-.4-.3-.6-.3s-.5,0-.6.3c-4.3,4.1-10.1,6.6-16.5,6.6s-6.1-.6-8.9-1.7c-.7-.3-1.4.2-1.4,1v32.7c0,6.7,6.9,6.9,6.9,6.9h75.4s6.9,0,6.9-9.1v-30.5c0-.7-.7-1.2-1.4-1Z"/>
      </g>
      <g>
        <circle class="cls-4" cx="565.4" cy="408.8" r="16.1" transform="translate(-37.4 57.4) rotate(-5.6)"/>
        <path class="cls-3" d="M565.4,441.2c-5.9,0-11.4-1.6-16.1-4.3v17.9c5,1.8,10.5,2.7,16.1,2.7,22.6,0,41.6-15.4,47.1-36.3h-17.2c-4.9,11.7-16.4,19.9-29.9,19.9Z"/>
        <path class="cls-3" d="M565.4,376.3c13.5,0,25,8.2,29.9,19.9h17.2c-5.5-20.9-24.5-36.3-47.1-36.3s-48.8,21.8-48.8,48.8,6.3,27.5,16.3,36.4v-36.4c0-17.9,14.5-32.4,32.4-32.4Z"/>
      </g>
    </g>
  </g>
</svg>